# xmcd
#
# Track frame offsets: 
#        150
#        19294
#        39317
#        51416
#        71335
#        89900
#        103457
#        118345
#        130535
#        152031
#        177650
#        192841
#
# Disc length: 2832 seconds
#
# Revision: 0
# Processed by: cddbd v1.5.2PL0 Copyright (c) Steve Scherf et al.
# Submitted via: ExactAudioCopyFreeDBPlugin 1.0
#
DISCID=b10b0e0c
DTITLE=Marta Ren and The Groovelvets ‎ - Stop Look Listen
DYEAR=2016
DGENRE=Soul
TTITLE0=Don't Look
TTITLE1=Release Me
TTITLE2=I'm Not Your Regular Woman
TTITLE3=Smiling Faces
TTITLE4=2 Kinds Of Men
TTITLE5=It's Today
TTITLE6=I'm Coming Home
TTITLE7=Be Ma Fela
TTITLE8=Let's Talk About The Kids
TTITLE9=So Long
TTITLE10=I Wanna Go Back
TTITLE11=Hit Me (hidden track)
EXTD=
EXTT0=
EXTT1=
EXTT2=
EXTT3=
EXTT4=
EXTT5=
EXTT6=
EXTT7=
EXTT8=
EXTT9=
EXTT10=
EXTT11=
PLAYORDER=
